<?xml version="1.0" encoding="utf-8"?>
<!-- Generator: Adobe Illustrator 26.0.1, SVG Export Plug-In . SVG Version: 6.00 Build 0)  -->
<svg version="1.1" id="Layer_1" xmlns="http://www.w3.org/2000/svg" xmlns:xlink="http://www.w3.org/1999/xlink" x="0px" y="0px"
	 viewBox="0 0 512 512" style="enable-background:new 0 0 512 512;" xml:space="preserve">
<style type="text/css">
	.st0{fill:#CCF511;}
</style>
<g>
	<path class="st0" d="M512,276c-0.92,7.91-1.72,15.84-2.78,23.74c-4.68,34.84-16.57,67.13-35.21,96.83
		c-20.83,33.19-47.37,60.93-80.57,82.03c-17.36,11.03-35.88,19.69-55.34,26.24c-10.78,3.63-18.27-1.95-18.32-13.3
		c-0.11-22.17,0.01-44.33-0.06-66.5c-0.04-11.38-0.68-22.77-5.72-33.2c-2.78-5.75-6.65-10.97-10-16.38
		c9.34-1.75,19.34-3.08,29.06-5.55c26.12-6.62,49.47-18.16,65.4-40.96c11.7-16.75,17.05-35.99,19.42-56.05
		c1.84-15.59,2.36-31.23-0.92-46.75c-3.29-15.62-10.01-29.62-20.49-41.65c-2.78-3.19-3.01-5.72-1.71-9.69
		c6.71-20.6,3.83-40.77-3.82-60.52c-0.45-1.15-2.33-2.25-3.69-2.46c-9.08-1.4-17.64,1.18-25.61,4.93
		c-12.77,6-25.09,12.94-37.74,19.2c-2.43,1.2-5.75,2.02-8.25,1.4c-39.74-9.9-79.44-9.99-119.11,0.17c-3.42,0.88-6,0.27-8.83-1.61
		c-15.91-10.58-33.05-18.51-51.56-23.42c-0.48-0.13-0.96-0.29-1.45-0.38c-11.62-2.18-13.49-0.98-16.81,10.29
		c-5.4,18.34-6.43,36.63,0.01,54.99c0.51,1.45-0.02,3.99-1.05,5.16c-21.11,23.96-26.15,52.39-23.53,83.06
		c1.59,18.59,5.88,36.44,14.18,53.22c11.46,23.2,30.87,37.47,54.46,45.71c14.17,4.95,29.35,6.99,44.08,10.33
		c0.75,0.17,1.52,0.26,1.6,0.28c-3.74,6.82-7.56,13.52-11.1,20.38c-1.12,2.17-1.96,4.72-2.07,7.14c-0.25,5.74-3.26,8.43-8.55,9.8
		c-16.08,4.16-32.01,6.94-47.33-2.52c-8.13-5.02-14.18-12.02-18.98-20.18c-7.38-12.56-17.74-21.72-31.72-25.89
		c-5.03-1.5-10.77-1.21-16.13-0.87c-4.05,0.26-4.93,3.19-2.34,6.37c2.19,2.68,4.39,5.73,7.29,7.4c13.61,7.82,21.24,20.33,27.41,34
		c3.63,8.05,6.9,16.18,13.74,22.31c10.76,9.64,23.74,13.29,37.63,13.91c12.05,0.54,24.14,0.11,37.03,0.11
		c0,8.61-0.02,18.4,0.01,28.2c0.02,5.17,0.2,10.33,0.18,15.5c-0.05,11.97-7.95,17.76-19.29,13.89
		c-37.83-12.89-71.12-33.21-99.03-61.89c-27.06-27.8-47.74-59.72-60.49-96.57c-7.23-20.89-11.43-42.38-13.1-64.39
		C0.64,279.9,0.27,277.96,0,276c0-10,0-20,0-30.01c0.32-1.76,0.7-3.52,0.96-5.29c1.71-11.52,2.64-23.21,5.23-34.53
		c14.5-63.33,48.23-114.16,100.88-152.19c36.52-26.38,77.27-41.92,122.24-46.3c38.02-3.71,75.24-0.15,111.24,12.67
		c52.57,18.73,95.02,51.04,126.69,97.13c20.93,30.46,34.95,63.84,40.86,100.45c1.51,9.32,2.61,18.71,3.9,28.07
		C512,256,512,266,512,276z"/>
</g>
</svg>
