<?xml version="1.0" encoding="utf-8"?>
<!-- Generator: Adobe Illustrator 26.0.1, SVG Export Plug-In . SVG Version: 6.00 Build 0)  -->
<svg version="1.1" id="Layer_1" xmlns="http://www.w3.org/2000/svg" xmlns:xlink="http://www.w3.org/1999/xlink" x="0px" y="0px"
	 viewBox="0 0 512 512" style="enable-background:new 0 0 512 512;" xml:space="preserve">
<style type="text/css">
	.st0{fill:#CCF511;}
</style>
<g>
	<path class="st0" d="M381,512c-83.33,0-166.67,0-250,0c-5.23-0.83-10.53-1.38-15.69-2.54c-58-13.05-95.22-48.15-111.12-105.49
		C2.12,396.5,1.36,388.67,0,381c0-83.33,0-166.67,0-250c0.83-5.23,1.38-10.53,2.54-15.69C15.58,57.3,50.7,20.11,108.03,4.19
		C115.5,2.12,123.33,1.36,131,0c83.33,0,166.67,0,250,0c5.23,0.83,10.53,1.38,15.69,2.54c58.01,13.04,95.21,48.16,111.12,105.49
		c2.07,7.47,2.83,15.3,4.19,22.97c0,83.33,0,166.67,0,250c-0.83,5.23-1.38,10.53-2.54,15.69c-13.04,58.01-48.16,95.21-105.49,111.12
		C396.5,509.88,388.67,510.64,381,512z M256.01,466.61c36.99,0,73.98,0.03,110.98-0.02c11.71-0.01,23.27-1.19,34.4-5.15
		c40.72-14.51,65.16-49.53,65.21-93.85c0.08-74.32,0.24-148.63-0.21-222.95c-0.07-11.31-1.58-23.15-5.17-33.82
		c-13.77-40.95-49.24-65.35-93.49-65.41c-74.48-0.1-148.97-0.24-223.45,0.2c-11.15,0.07-22.81,1.59-33.33,5.11
		c-40.77,13.66-65.39,48.99-65.49,92.93c-0.18,74.82-0.1,149.63-0.03,224.45c0.03,33.56,13.25,60.72,40.45,80.63
		c17.4,12.74,37.26,17.93,58.67,17.89C181.69,466.56,218.85,466.61,256.01,466.61z"/>
	<path class="st0" d="M256.04,124.05c72.51,0.05,132.12,59.74,131.91,132.11c-0.21,72.61-59.95,132.14-132.23,131.78
		c-72.52-0.36-131.54-59.48-131.66-131.86C123.94,183.67,183.58,124.01,256.04,124.05z M342.42,256.08
		c0.12-47.58-38.62-86.39-86.34-86.51c-47.59-0.12-86.39,38.61-86.51,86.34c-0.12,47.58,38.61,86.39,86.34,86.51
		C303.49,342.54,342.31,303.8,342.42,256.08z"/>
	<path class="st0" d="M393.44,152.08c-18.1-0.02-33.05-14.85-33.29-32.99c-0.23-18.15,15.02-33.41,33.36-33.39
		c18.36,0.03,33.61,15.36,33.28,33.46C426.46,137.37,411.54,152.1,393.44,152.08z"/>
</g>
</svg>
