<?xml version="1.0" encoding="utf-8"?>
<!-- Generator: Adobe Illustrator 26.0.1, SVG Export Plug-In . SVG Version: 6.00 Build 0)  -->
<svg version="1.1" id="Layer_1" xmlns="http://www.w3.org/2000/svg" xmlns:xlink="http://www.w3.org/1999/xlink" x="0px" y="0px"
	 viewBox="0 0 512 512" style="enable-background:new 0 0 512 512;" xml:space="preserve">
<style type="text/css">
	.st0{fill:#CCF511;}
</style>
<g>
	<path class="st0" d="M0.35,61.05c170.55,0,340.84,0,511.34,0c0,128.56,0,257.06,0,385.75c-170.35,0-340.75,0-511.34,0
		C0.35,318.28,0.35,189.79,0.35,61.05z M454.15,97.58c-0.18-0.24-0.36-0.48-0.54-0.72c-130.72,0-261.43,0-392.46,0
		c0.64,0.76,1.05,1.31,1.53,1.8c38.12,38.59,76.25,77.17,114.38,115.75c21.21,21.46,42.38,42.96,63.65,64.35
		c8.48,8.53,24.1,8.53,32.64-0.01c22.03-22.03,43.96-44.17,65.92-66.27c33.29-33.5,66.56-67.03,99.88-100.5
		C444.04,107.06,449.15,102.37,454.15,97.58z M190.09,279.19c-42.82,43.74-85.81,87.66-129.18,131.96c130.31,0,259.99,0,390.31,0
		c-43-44.03-85.61-87.65-128.29-131.35c-0.63,0.56-1.13,0.95-1.57,1.4c-6.71,6.74-13.58,13.33-20.08,20.26
		c-11.04,11.77-24.53,18.3-40.58,19.14c-18.96,0.99-35.01-5.44-48.15-19.4C205.44,293.64,197.73,286.65,190.09,279.19z
		 M36.06,122.45c0,87.89,0,175.21,0,263.04c43.31-44.24,86.26-88.12,129.32-132.1C122.22,209.69,79.31,166.24,36.06,122.45z
		 M476.09,125.38c-42.96,43.26-85.48,86.07-128.09,128.98c42.71,43.73,85.21,87.23,128.09,131.13
		C476.09,298.61,476.09,212.37,476.09,125.38z"/>
</g>
</svg>
